<?xml version="1.0" encoding="UTF-8" standalone="no"?><!DOCTYPE svg PUBLIC "-//W3C//DTD SVG 1.1//EN" "http://www.w3.org/Graphics/SVG/1.1/DTD/svg11.dtd"><svg width="100%" height="100%" viewBox="0 0 134 134" version="1.1" xmlns="http://www.w3.org/2000/svg" xmlns:xlink="http://www.w3.org/1999/xlink" xml:space="preserve" xmlns:serif="http://www.serif.com/" style="fill-rule:evenodd;clip-rule:evenodd;stroke-linejoin:round;stroke-miterlimit:2;"><rect id="Logo" x="0" y="0" width="133.333" height="133.333" style="fill:none;"/><clipPath id="_clip1"><rect x="0" y="0" width="133.333" height="133.333"/></clipPath><g clip-path="url(#_clip1)"><circle cx="66.667" cy="66.667" r="66.667"/><path d="M47.533,107.869l0,-10.8c3.289,0 5.956,-0.222 8,-0.666c2.045,-0.445 3.623,-1.245 4.734,-2.4c1.111,-1.156 1.889,-2.823 2.333,-5c0.444,-2.178 0.667,-4.956 0.667,-8.334l-0,-83.333l14.933,-0l-0,83.6c-0,6.222 -0.667,11.311 -2,15.267c-1.333,3.955 -3.689,6.888 -7.067,8.8c-3.377,1.911 -8.177,2.866 -14.4,2.866l-7.2,0Z" style="fill:#fff;fill-rule:nonzero;"/></g></svg>