<?xml version="1.0" encoding="UTF-8" standalone="no"?><!DOCTYPE svg PUBLIC "-//W3C//DTD SVG 1.1//EN" "http://www.w3.org/Graphics/SVG/1.1/DTD/svg11.dtd"><svg width="100%" height="100%" viewBox="0 0 32 32" version="1.1" xmlns="http://www.w3.org/2000/svg" xmlns:xlink="http://www.w3.org/1999/xlink" xml:space="preserve" xmlns:serif="http://www.serif.com/" style="fill-rule:evenodd;clip-rule:evenodd;stroke-linejoin:round;stroke-miterlimit:2;"><rect id="Logo" x="0" y="0" width="32" height="32" style="fill:none;"/><clipPath id="_clip1"><rect x="0" y="0" width="32" height="32"/></clipPath><g clip-path="url(#_clip1)"><path d="M16,0c8.831,0 16,7.169 16,16c-0,8.831 -7.169,16 -16,16c-8.831,0 -16,-7.169 -16,-16c-0,-8.831 7.169,-16 16,-16Zm-0,1c8.279,0 15,6.721 15,15c-0,8.279 -6.721,15 -15,15c-8.279,0 -15,-6.721 -15,-15c-0,-8.279 6.721,-15 15,-15Z"/><path d="M8.669,21.023c1.544,1.511 3.581,2.393 6.381,-0.407l8.672,-8.672l-1.511,-1.51l-8.519,8.519c-1.663,1.663 -2.647,1.629 -3.767,0.509c-0.357,-0.356 -0.662,-0.73 -1.002,-1.205l-1.544,1.171c0.288,0.424 0.73,1.035 1.29,1.595Z" style="fill-rule:nonzero;"/></g></svg>