<?xml version="1.0" encoding="UTF-8" standalone="no"?><!DOCTYPE svg PUBLIC "-//W3C//DTD SVG 1.1//EN" "http://www.w3.org/Graphics/SVG/1.1/DTD/svg11.dtd"><svg width="100%" height="100%" viewBox="0 0 134 134" version="1.1" xmlns="http://www.w3.org/2000/svg" xmlns:xlink="http://www.w3.org/1999/xlink" xml:space="preserve" xmlns:serif="http://www.serif.com/" style="fill-rule:evenodd;clip-rule:evenodd;stroke-linejoin:round;stroke-miterlimit:2;"><rect id="Logo" x="0" y="0" width="133.333" height="133.333" style="fill:none;"/><clipPath id="_clip1"><rect x="0" y="0" width="133.333" height="133.333"/></clipPath><g clip-path="url(#_clip1)"><path d="M66.667,0c36.794,0 66.666,29.872 66.666,66.667c0,36.794 -29.872,66.666 -66.666,66.666c-36.795,0 -66.667,-29.872 -66.667,-66.666c-0,-36.795 29.872,-66.667 66.667,-66.667Zm-0,4.167c34.494,-0 62.5,28.005 62.5,62.5c-0,34.494 -28.006,62.5 -62.5,62.5c-34.495,-0 -62.5,-28.006 -62.5,-62.5c-0,-34.495 28.005,-62.5 62.5,-62.5Z"/><path d="M36.12,87.597c6.434,6.293 14.92,9.97 26.587,-1.697l36.133,-36.133l-6.293,-6.293l-35.497,35.496c-6.93,6.93 -11.031,6.789 -15.698,2.122c-1.485,-1.485 -2.757,-3.041 -4.172,-5.021l-6.434,4.879c1.202,1.768 3.04,4.314 5.374,6.647Z" style="fill-rule:nonzero;"/></g></svg>